<svg width="496" height="149" viewBox="0 0 496 149" fill="none" xmlns="http://www.w3.org/2000/svg">
<path d="M30.4502 31V123H2.5V31H30.4502ZM131.289 31V58.9502H66.1885V95.0498H131.438V123H62.4883C58.1367 123 54.0876 121.877 50.3926 119.638C46.7483 117.429 43.8093 114.49 41.6006 110.846C39.3612 107.151 38.2383 103.102 38.2383 98.75V55.25C38.2383 50.8983 39.3612 46.8494 41.6006 43.1543C43.8093 39.5099 46.7483 36.5711 50.3926 34.3623C54.0876 32.1229 58.1367 31.0001 62.4883 31H131.289ZM210.021 31C214.46 31 218.561 32.1166 222.267 34.3623C225.906 36.5681 228.798 39.5061 230.909 43.1543L231.315 43.8516C233.284 47.3569 234.271 51.1703 234.271 55.25V98.75C234.271 103.083 233.157 107.115 230.937 110.797C228.823 114.467 225.922 117.422 222.267 119.638C218.561 121.883 214.46 123 210.021 123H165.32C160.969 123 156.92 121.877 153.225 119.638C149.58 117.429 146.641 114.49 144.433 110.846C142.193 107.151 141.07 103.102 141.07 98.75V55.25C141.07 50.8983 142.193 46.8494 144.433 43.1543C146.641 39.5099 149.58 36.5711 153.225 34.3623C156.92 32.1229 160.969 31.0001 165.32 31H210.021ZM169.021 95.0498H206.32V58.9502H169.021V95.0498ZM30.4502 2.5V30.5996H2.5V2.5H30.4502Z" fill="#01B7EF" stroke="#363636" stroke-width="5"/>
<path d="M332.9 10C337.32 10.0001 341.404 11.1079 345.097 13.334L345.098 13.333C348.768 15.4464 351.723 18.3482 353.938 22.0039C356.184 25.7094 357.3 29.8107 357.3 34.25V58.0996C357.3 62.5389 356.184 66.6403 353.938 70.3457C351.73 73.9902 348.79 76.9289 345.146 79.1377C341.44 81.3833 337.34 82.4999 332.9 82.5H274.2V95.0498H357.3V123H246.25V78.6504C246.25 74.211 247.367 70.1098 249.612 66.4043C251.828 62.7487 254.782 59.8468 258.452 57.7334C262.145 55.507 266.23 54.4004 270.65 54.4004H329.35V37.9502H274.2V46.6504H246.25V34.25C246.25 29.8107 247.367 25.7094 249.612 22.0039C251.828 18.3484 254.782 15.4463 258.452 13.333V13.334C262.145 11.1074 266.23 10 270.65 10H332.9Z" fill="#CB2518" stroke="#363636" stroke-width="5"/>
<path d="M494.199 131.5V138.5H6.19922V131.5H494.199Z" fill="url(#paint0_linear_2026_4037)" stroke="#363636" stroke-width="2"/>
<mask id="path-4-outside-1_2026_4037" maskUnits="userSpaceOnUse" x="367.199" y="7.5" width="129" height="141" fill="black">
<rect fill="white" x="367.199" y="7.5" width="129" height="141"/>
<path d="M406.989 97.3877C409.919 97.3877 412.824 97.6562 415.705 98.1934C418.635 98.7305 421.271 99.6338 423.615 100.903C425.959 102.173 427.839 103.833 429.255 105.884C430.72 107.983 431.452 110.596 431.452 113.721C431.452 116.016 430.915 118.335 429.841 120.679C428.767 123.022 427.277 125.293 425.373 127.49C423.469 129.688 421.223 131.763 418.635 133.716C416.096 135.669 413.337 137.354 410.358 138.77C407.38 140.234 404.279 141.382 401.057 142.212C397.834 143.042 394.611 143.457 391.389 143.457C388.752 143.457 386.262 143.164 383.918 142.578C381.623 142.041 379.597 141.211 377.839 140.088C376.13 138.965 374.763 137.549 373.737 135.84C372.712 134.18 372.199 132.202 372.199 129.907C372.199 127.661 372.639 125.537 373.518 123.535C374.396 121.582 375.544 119.775 376.96 118.115C378.425 116.455 380.085 114.941 381.94 113.574C383.796 112.256 385.7 111.133 387.653 110.205C389.655 109.326 391.608 108.643 393.513 108.154C395.417 107.666 397.15 107.422 398.713 107.422C399.543 107.52 400.104 107.617 400.397 107.715C400.69 107.861 400.837 108.008 400.837 108.154C400.837 108.301 400.764 108.472 400.617 108.667C400.471 108.911 400.397 109.106 400.397 109.253C400.495 109.546 400.593 109.888 400.69 110.278C400.788 110.669 400.837 111.06 400.837 111.45C400.837 111.938 400.739 112.354 400.544 112.695C400.397 113.086 400.056 113.33 399.519 113.428C397.468 113.916 395.197 114.746 392.707 115.918C390.266 117.09 387.946 118.457 385.749 120.02C383.601 121.631 381.794 123.34 380.329 125.146C378.864 127.002 378.107 128.857 378.059 130.713C378.059 131.592 378.474 132.227 379.304 132.617C380.134 133.008 381.306 133.203 382.819 133.203C384.675 133.203 386.896 132.935 389.484 132.397C392.072 131.86 394.758 131.079 397.541 130.054C400.324 129.077 403.059 127.856 405.744 126.392C408.479 124.976 410.92 123.364 413.068 121.558C415.266 119.751 417.023 117.798 418.342 115.698C419.66 113.599 420.319 111.353 420.319 108.96C420.319 107.788 420.075 106.86 419.587 106.177C419.147 105.542 418.61 105.054 417.976 104.712C417.39 104.37 416.755 104.15 416.071 104.053C415.437 104.004 414.899 103.979 414.46 103.979C410.993 103.979 407.453 104.175 403.84 104.565C400.227 105.005 396.931 105.444 393.952 105.884C391.022 106.372 388.605 106.812 386.701 107.202C384.797 107.642 383.796 107.861 383.698 107.861C382.624 107.861 381.623 107.642 380.695 107.202C379.816 106.763 379.06 106.201 378.425 105.518C377.79 104.834 377.277 104.028 376.887 103.101C376.545 102.222 376.374 101.318 376.374 100.391C376.374 99.6582 376.813 98.6084 377.692 97.2412C378.571 95.8252 379.719 94.3115 381.135 92.7002C382.551 91.0889 384.162 89.502 385.969 87.9395C387.824 86.377 389.68 85.083 391.535 84.0576C389.875 83.1787 388.386 82.1045 387.067 80.835C385.749 79.5654 384.626 78.1982 383.698 76.7334C382.819 75.2686 382.136 73.7305 381.647 72.1191C381.159 70.459 380.915 68.7744 380.915 67.0654C380.915 63.7451 381.379 60.8154 382.307 58.2764C383.234 55.6885 384.455 53.4424 385.969 51.5381C387.482 49.6338 389.167 48.0469 391.022 46.7773C392.927 45.5078 394.807 44.4824 396.662 43.7012C398.518 42.9199 400.275 42.3828 401.936 42.0898C403.596 41.748 404.987 41.5771 406.11 41.5771C406.647 41.5771 407.087 41.6016 407.429 41.6504C407.819 41.6992 408.161 41.7725 408.454 41.8701C409.675 39.917 411.066 37.8418 412.629 35.6445C414.24 33.3984 415.876 31.2012 417.536 29.0527C419.245 26.8555 420.93 24.7803 422.59 22.8271C424.299 20.8252 425.837 19.0674 427.204 17.5537C428.62 15.9912 429.816 14.7705 430.793 13.8916C431.77 12.9639 432.429 12.5 432.771 12.5C433.21 12.5 433.747 12.793 434.382 13.3789C435.017 13.916 435.627 14.5508 436.213 15.2832C436.799 15.9668 437.287 16.6504 437.678 17.334C438.117 17.9688 438.337 18.4082 438.337 18.6523C438.337 18.8965 438.239 19.1162 438.044 19.3115C437.849 19.5068 437.751 19.6777 437.751 19.8242C437.751 20.0684 437.873 20.2881 438.117 20.4834C438.41 20.6299 438.825 20.8252 439.362 21.0693C439.46 21.167 439.533 21.2158 439.582 21.2158C439.631 21.2158 439.655 21.2646 439.655 21.3623C439.655 21.5576 439.338 21.8994 438.703 22.3877C438.068 22.8271 437.043 23.6328 435.627 24.8047C434.211 25.9277 432.38 27.5146 430.134 29.5654C427.888 31.6162 425.129 34.3262 421.857 37.6953C421.076 38.4277 420.271 39.3311 419.44 40.4053C418.61 41.4795 417.707 42.627 416.73 43.8477C418 44.5312 419.318 45.4346 420.686 46.5576C422.053 47.6807 423.273 48.999 424.348 50.5127C425.471 51.9775 426.374 53.6621 427.058 55.5664C427.79 57.4707 428.156 59.5215 428.156 61.7188C428.156 66.4062 427.375 70.3369 425.812 73.5107C424.25 76.6846 422.224 79.248 419.733 81.2012C417.243 83.1055 414.46 84.4727 411.384 85.3027C408.308 86.1328 405.28 86.5479 402.302 86.5479C401.569 86.5479 400.861 86.5234 400.178 86.4746C399.543 86.4258 398.908 86.3525 398.273 86.2549C397.15 86.9873 395.881 87.8906 394.465 88.9648C393.049 90.0391 391.657 91.2109 390.29 92.4805C388.923 93.75 387.653 95.0439 386.481 96.3623C385.358 97.6807 384.504 98.9258 383.918 100.098C385.871 100.049 387.751 99.9023 389.558 99.6582C391.364 99.3652 393.171 99.0479 394.978 98.7061C396.833 98.3643 398.737 98.0713 400.69 97.8271C402.644 97.5342 404.743 97.3877 406.989 97.3877ZM404.719 50.5859C404.719 49.6094 405.28 47.9492 406.403 45.6055C404.108 46.3379 402.058 47.4365 400.251 48.9014C398.444 50.3662 396.906 52.0264 395.637 53.8818C394.367 55.7373 393.391 57.7393 392.707 59.8877C392.023 61.9873 391.682 64.0869 391.682 66.1865C391.682 67.7002 391.853 69.165 392.194 70.5811C392.585 71.9482 393.171 73.1934 393.952 74.3164C394.733 75.3906 395.734 76.2695 396.955 76.9531C398.225 77.5879 399.763 77.9053 401.569 77.9053C403.522 77.9053 405.256 77.5635 406.77 76.8799C408.332 76.1475 409.699 75.2197 410.871 74.0967C412.043 72.9248 413.02 71.6309 413.801 70.2148C414.631 68.7988 415.29 67.4072 415.778 66.04C416.315 64.624 416.706 63.3057 416.95 62.085C417.194 60.8643 417.316 59.8877 417.316 59.1553C417.316 56.2256 416.828 53.9551 415.852 52.3438C414.924 50.6836 413.825 49.4385 412.556 48.6084C411.872 49.4385 411.164 50.2441 410.432 51.0254C409.699 51.7578 408.942 52.5146 408.161 53.2959C408.063 53.3936 407.917 53.4424 407.722 53.4424C407.575 53.4424 407.453 53.3691 407.355 53.2227C407.258 53.0762 407.087 53.0029 406.843 53.0029C406.696 53.0029 406.55 53.0762 406.403 53.2227C406.257 53.3691 406.062 53.4424 405.817 53.4424C405.476 53.4424 405.207 53.2471 405.012 52.8564C404.816 52.4658 404.719 51.709 404.719 50.5859Z"/>
<path d="M490.485 69.7754C490.485 74.9023 489.729 79.5166 488.215 83.6182C486.75 87.7197 484.724 91.2109 482.136 94.0918C479.597 96.9727 476.643 99.1943 473.273 100.757C469.904 102.319 466.34 103.101 462.58 103.101C461.018 103.101 459.309 102.905 457.453 102.515C455.598 102.173 453.742 101.587 451.887 100.757C450.031 99.9268 448.225 98.8281 446.467 97.4609C444.709 96.0938 443.146 94.4092 441.779 92.4072C440.412 90.4053 439.313 88.0615 438.483 85.376C437.702 82.6904 437.336 79.5898 437.385 76.0742C437.385 72.0703 437.873 68.4326 438.85 65.1611C439.826 61.8408 441.071 58.8867 442.585 56.2988C444.147 53.6621 445.905 51.3916 447.858 49.4873C449.812 47.583 451.765 45.9961 453.718 44.7266C455.671 43.4082 457.551 42.4316 459.357 41.7969C461.164 41.1621 462.727 40.7959 464.045 40.6982C464.729 40.6494 465.021 40.7227 464.924 40.918C464.875 41.1133 464.704 41.333 464.411 41.5771C464.118 41.8213 463.85 42.0654 463.605 42.3096C463.41 42.5537 463.508 42.7002 463.898 42.749C464.24 42.8467 464.509 42.9443 464.704 43.042C464.948 43.1396 465.192 43.2617 465.437 43.4082L466.022 42.749C466.364 42.5049 466.682 42.3828 466.975 42.3828C467.316 42.3828 467.609 42.4316 467.854 42.5293C468.098 42.5781 468.293 42.6025 468.439 42.6025C468.586 42.6025 468.684 42.4561 468.732 42.1631C468.83 41.626 469.001 41.333 469.245 41.2842C469.538 41.1865 470.173 41.1377 471.149 41.1377C471.735 41.1377 472.614 41.3086 473.786 41.6504C475.007 41.9922 476.325 42.5781 477.741 43.4082C479.206 44.2383 480.671 45.3613 482.136 46.7773C483.649 48.1445 485.017 49.9023 486.237 52.0508C487.507 54.1504 488.532 56.665 489.313 59.5947C490.095 62.5244 490.485 65.918 490.485 69.7754ZM464.045 48.3154C462.336 49.3408 460.651 50.7324 458.991 52.4902C457.331 54.248 455.817 56.2744 454.45 58.5693C453.132 60.8643 452.058 63.4277 451.228 66.2598C450.397 69.0918 449.982 72.0703 449.982 75.1953C449.982 78.5645 450.275 81.6162 450.861 84.3506C451.496 87.085 452.399 89.4287 453.571 91.3818C454.743 93.2861 456.159 94.7754 457.819 95.8496C459.528 96.875 461.457 97.3877 463.605 97.3877C465.51 97.3877 467.39 96.8506 469.245 95.7764C471.149 94.7021 472.834 93.0908 474.299 90.9424C475.764 88.7939 476.936 86.1328 477.814 82.959C478.742 79.7852 479.206 76.0986 479.206 71.8994C479.206 67.6514 478.645 64.0869 477.521 61.2061C476.398 58.3252 475.129 56.0059 473.713 54.248C472.346 52.4414 471.027 51.1719 469.758 50.4395C468.488 49.6582 467.707 49.2676 467.414 49.2676C466.73 49.2676 466.193 49.2676 465.803 49.2676C465.461 49.2676 464.875 48.9502 464.045 48.3154Z"/>
</mask>
<path d="M406.989 97.3877C409.919 97.3877 412.824 97.6562 415.705 98.1934C418.635 98.7305 421.271 99.6338 423.615 100.903C425.959 102.173 427.839 103.833 429.255 105.884C430.72 107.983 431.452 110.596 431.452 113.721C431.452 116.016 430.915 118.335 429.841 120.679C428.767 123.022 427.277 125.293 425.373 127.49C423.469 129.688 421.223 131.763 418.635 133.716C416.096 135.669 413.337 137.354 410.358 138.77C407.38 140.234 404.279 141.382 401.057 142.212C397.834 143.042 394.611 143.457 391.389 143.457C388.752 143.457 386.262 143.164 383.918 142.578C381.623 142.041 379.597 141.211 377.839 140.088C376.13 138.965 374.763 137.549 373.737 135.84C372.712 134.18 372.199 132.202 372.199 129.907C372.199 127.661 372.639 125.537 373.518 123.535C374.396 121.582 375.544 119.775 376.96 118.115C378.425 116.455 380.085 114.941 381.94 113.574C383.796 112.256 385.7 111.133 387.653 110.205C389.655 109.326 391.608 108.643 393.513 108.154C395.417 107.666 397.15 107.422 398.713 107.422C399.543 107.52 400.104 107.617 400.397 107.715C400.69 107.861 400.837 108.008 400.837 108.154C400.837 108.301 400.764 108.472 400.617 108.667C400.471 108.911 400.397 109.106 400.397 109.253C400.495 109.546 400.593 109.888 400.69 110.278C400.788 110.669 400.837 111.06 400.837 111.45C400.837 111.938 400.739 112.354 400.544 112.695C400.397 113.086 400.056 113.33 399.519 113.428C397.468 113.916 395.197 114.746 392.707 115.918C390.266 117.09 387.946 118.457 385.749 120.02C383.601 121.631 381.794 123.34 380.329 125.146C378.864 127.002 378.107 128.857 378.059 130.713C378.059 131.592 378.474 132.227 379.304 132.617C380.134 133.008 381.306 133.203 382.819 133.203C384.675 133.203 386.896 132.935 389.484 132.397C392.072 131.86 394.758 131.079 397.541 130.054C400.324 129.077 403.059 127.856 405.744 126.392C408.479 124.976 410.92 123.364 413.068 121.558C415.266 119.751 417.023 117.798 418.342 115.698C419.66 113.599 420.319 111.353 420.319 108.96C420.319 107.788 420.075 106.86 419.587 106.177C419.147 105.542 418.61 105.054 417.976 104.712C417.39 104.37 416.755 104.15 416.071 104.053C415.437 104.004 414.899 103.979 414.46 103.979C410.993 103.979 407.453 104.175 403.84 104.565C400.227 105.005 396.931 105.444 393.952 105.884C391.022 106.372 388.605 106.812 386.701 107.202C384.797 107.642 383.796 107.861 383.698 107.861C382.624 107.861 381.623 107.642 380.695 107.202C379.816 106.763 379.06 106.201 378.425 105.518C377.79 104.834 377.277 104.028 376.887 103.101C376.545 102.222 376.374 101.318 376.374 100.391C376.374 99.6582 376.813 98.6084 377.692 97.2412C378.571 95.8252 379.719 94.3115 381.135 92.7002C382.551 91.0889 384.162 89.502 385.969 87.9395C387.824 86.377 389.68 85.083 391.535 84.0576C389.875 83.1787 388.386 82.1045 387.067 80.835C385.749 79.5654 384.626 78.1982 383.698 76.7334C382.819 75.2686 382.136 73.7305 381.647 72.1191C381.159 70.459 380.915 68.7744 380.915 67.0654C380.915 63.7451 381.379 60.8154 382.307 58.2764C383.234 55.6885 384.455 53.4424 385.969 51.5381C387.482 49.6338 389.167 48.0469 391.022 46.7773C392.927 45.5078 394.807 44.4824 396.662 43.7012C398.518 42.9199 400.275 42.3828 401.936 42.0898C403.596 41.748 404.987 41.5771 406.11 41.5771C406.647 41.5771 407.087 41.6016 407.429 41.6504C407.819 41.6992 408.161 41.7725 408.454 41.8701C409.675 39.917 411.066 37.8418 412.629 35.6445C414.24 33.3984 415.876 31.2012 417.536 29.0527C419.245 26.8555 420.93 24.7803 422.59 22.8271C424.299 20.8252 425.837 19.0674 427.204 17.5537C428.62 15.9912 429.816 14.7705 430.793 13.8916C431.77 12.9639 432.429 12.5 432.771 12.5C433.21 12.5 433.747 12.793 434.382 13.3789C435.017 13.916 435.627 14.5508 436.213 15.2832C436.799 15.9668 437.287 16.6504 437.678 17.334C438.117 17.9688 438.337 18.4082 438.337 18.6523C438.337 18.8965 438.239 19.1162 438.044 19.3115C437.849 19.5068 437.751 19.6777 437.751 19.8242C437.751 20.0684 437.873 20.2881 438.117 20.4834C438.41 20.6299 438.825 20.8252 439.362 21.0693C439.46 21.167 439.533 21.2158 439.582 21.2158C439.631 21.2158 439.655 21.2646 439.655 21.3623C439.655 21.5576 439.338 21.8994 438.703 22.3877C438.068 22.8271 437.043 23.6328 435.627 24.8047C434.211 25.9277 432.38 27.5146 430.134 29.5654C427.888 31.6162 425.129 34.3262 421.857 37.6953C421.076 38.4277 420.271 39.3311 419.44 40.4053C418.61 41.4795 417.707 42.627 416.73 43.8477C418 44.5312 419.318 45.4346 420.686 46.5576C422.053 47.6807 423.273 48.999 424.348 50.5127C425.471 51.9775 426.374 53.6621 427.058 55.5664C427.79 57.4707 428.156 59.5215 428.156 61.7188C428.156 66.4062 427.375 70.3369 425.812 73.5107C424.25 76.6846 422.224 79.248 419.733 81.2012C417.243 83.1055 414.46 84.4727 411.384 85.3027C408.308 86.1328 405.28 86.5479 402.302 86.5479C401.569 86.5479 400.861 86.5234 400.178 86.4746C399.543 86.4258 398.908 86.3525 398.273 86.2549C397.15 86.9873 395.881 87.8906 394.465 88.9648C393.049 90.0391 391.657 91.2109 390.29 92.4805C388.923 93.75 387.653 95.0439 386.481 96.3623C385.358 97.6807 384.504 98.9258 383.918 100.098C385.871 100.049 387.751 99.9023 389.558 99.6582C391.364 99.3652 393.171 99.0479 394.978 98.7061C396.833 98.3643 398.737 98.0713 400.69 97.8271C402.644 97.5342 404.743 97.3877 406.989 97.3877ZM404.719 50.5859C404.719 49.6094 405.28 47.9492 406.403 45.6055C404.108 46.3379 402.058 47.4365 400.251 48.9014C398.444 50.3662 396.906 52.0264 395.637 53.8818C394.367 55.7373 393.391 57.7393 392.707 59.8877C392.023 61.9873 391.682 64.0869 391.682 66.1865C391.682 67.7002 391.853 69.165 392.194 70.5811C392.585 71.9482 393.171 73.1934 393.952 74.3164C394.733 75.3906 395.734 76.2695 396.955 76.9531C398.225 77.5879 399.763 77.9053 401.569 77.9053C403.522 77.9053 405.256 77.5635 406.77 76.8799C408.332 76.1475 409.699 75.2197 410.871 74.0967C412.043 72.9248 413.02 71.6309 413.801 70.2148C414.631 68.7988 415.29 67.4072 415.778 66.04C416.315 64.624 416.706 63.3057 416.95 62.085C417.194 60.8643 417.316 59.8877 417.316 59.1553C417.316 56.2256 416.828 53.9551 415.852 52.3438C414.924 50.6836 413.825 49.4385 412.556 48.6084C411.872 49.4385 411.164 50.2441 410.432 51.0254C409.699 51.7578 408.942 52.5146 408.161 53.2959C408.063 53.3936 407.917 53.4424 407.722 53.4424C407.575 53.4424 407.453 53.3691 407.355 53.2227C407.258 53.0762 407.087 53.0029 406.843 53.0029C406.696 53.0029 406.55 53.0762 406.403 53.2227C406.257 53.3691 406.062 53.4424 405.817 53.4424C405.476 53.4424 405.207 53.2471 405.012 52.8564C404.816 52.4658 404.719 51.709 404.719 50.5859Z" fill="#31EF01"/>
<path d="M490.485 69.7754C490.485 74.9023 489.729 79.5166 488.215 83.6182C486.75 87.7197 484.724 91.2109 482.136 94.0918C479.597 96.9727 476.643 99.1943 473.273 100.757C469.904 102.319 466.34 103.101 462.58 103.101C461.018 103.101 459.309 102.905 457.453 102.515C455.598 102.173 453.742 101.587 451.887 100.757C450.031 99.9268 448.225 98.8281 446.467 97.4609C444.709 96.0938 443.146 94.4092 441.779 92.4072C440.412 90.4053 439.313 88.0615 438.483 85.376C437.702 82.6904 437.336 79.5898 437.385 76.0742C437.385 72.0703 437.873 68.4326 438.85 65.1611C439.826 61.8408 441.071 58.8867 442.585 56.2988C444.147 53.6621 445.905 51.3916 447.858 49.4873C449.812 47.583 451.765 45.9961 453.718 44.7266C455.671 43.4082 457.551 42.4316 459.357 41.7969C461.164 41.1621 462.727 40.7959 464.045 40.6982C464.729 40.6494 465.021 40.7227 464.924 40.918C464.875 41.1133 464.704 41.333 464.411 41.5771C464.118 41.8213 463.85 42.0654 463.605 42.3096C463.41 42.5537 463.508 42.7002 463.898 42.749C464.24 42.8467 464.509 42.9443 464.704 43.042C464.948 43.1396 465.192 43.2617 465.437 43.4082L466.022 42.749C466.364 42.5049 466.682 42.3828 466.975 42.3828C467.316 42.3828 467.609 42.4316 467.854 42.5293C468.098 42.5781 468.293 42.6025 468.439 42.6025C468.586 42.6025 468.684 42.4561 468.732 42.1631C468.83 41.626 469.001 41.333 469.245 41.2842C469.538 41.1865 470.173 41.1377 471.149 41.1377C471.735 41.1377 472.614 41.3086 473.786 41.6504C475.007 41.9922 476.325 42.5781 477.741 43.4082C479.206 44.2383 480.671 45.3613 482.136 46.7773C483.649 48.1445 485.017 49.9023 486.237 52.0508C487.507 54.1504 488.532 56.665 489.313 59.5947C490.095 62.5244 490.485 65.918 490.485 69.7754ZM464.045 48.3154C462.336 49.3408 460.651 50.7324 458.991 52.4902C457.331 54.248 455.817 56.2744 454.45 58.5693C453.132 60.8643 452.058 63.4277 451.228 66.2598C450.397 69.0918 449.982 72.0703 449.982 75.1953C449.982 78.5645 450.275 81.6162 450.861 84.3506C451.496 87.085 452.399 89.4287 453.571 91.3818C454.743 93.2861 456.159 94.7754 457.819 95.8496C459.528 96.875 461.457 97.3877 463.605 97.3877C465.51 97.3877 467.39 96.8506 469.245 95.7764C471.149 94.7021 472.834 93.0908 474.299 90.9424C475.764 88.7939 476.936 86.1328 477.814 82.959C478.742 79.7852 479.206 76.0986 479.206 71.8994C479.206 67.6514 478.645 64.0869 477.521 61.2061C476.398 58.3252 475.129 56.0059 473.713 54.248C472.346 52.4414 471.027 51.1719 469.758 50.4395C468.488 49.6582 467.707 49.2676 467.414 49.2676C466.73 49.2676 466.193 49.2676 465.803 49.2676C465.461 49.2676 464.875 48.9502 464.045 48.3154Z" fill="#31EF01"/>
<path d="M406.989 97.3877C409.919 97.3877 412.824 97.6562 415.705 98.1934C418.635 98.7305 421.271 99.6338 423.615 100.903C425.959 102.173 427.839 103.833 429.255 105.884C430.72 107.983 431.452 110.596 431.452 113.721C431.452 116.016 430.915 118.335 429.841 120.679C428.767 123.022 427.277 125.293 425.373 127.49C423.469 129.688 421.223 131.763 418.635 133.716C416.096 135.669 413.337 137.354 410.358 138.77C407.38 140.234 404.279 141.382 401.057 142.212C397.834 143.042 394.611 143.457 391.389 143.457C388.752 143.457 386.262 143.164 383.918 142.578C381.623 142.041 379.597 141.211 377.839 140.088C376.13 138.965 374.763 137.549 373.737 135.84C372.712 134.18 372.199 132.202 372.199 129.907C372.199 127.661 372.639 125.537 373.518 123.535C374.396 121.582 375.544 119.775 376.96 118.115C378.425 116.455 380.085 114.941 381.94 113.574C383.796 112.256 385.7 111.133 387.653 110.205C389.655 109.326 391.608 108.643 393.513 108.154C395.417 107.666 397.15 107.422 398.713 107.422C399.543 107.52 400.104 107.617 400.397 107.715C400.69 107.861 400.837 108.008 400.837 108.154C400.837 108.301 400.764 108.472 400.617 108.667C400.471 108.911 400.397 109.106 400.397 109.253C400.495 109.546 400.593 109.888 400.69 110.278C400.788 110.669 400.837 111.06 400.837 111.45C400.837 111.938 400.739 112.354 400.544 112.695C400.397 113.086 400.056 113.33 399.519 113.428C397.468 113.916 395.197 114.746 392.707 115.918C390.266 117.09 387.946 118.457 385.749 120.02C383.601 121.631 381.794 123.34 380.329 125.146C378.864 127.002 378.107 128.857 378.059 130.713C378.059 131.592 378.474 132.227 379.304 132.617C380.134 133.008 381.306 133.203 382.819 133.203C384.675 133.203 386.896 132.935 389.484 132.397C392.072 131.86 394.758 131.079 397.541 130.054C400.324 129.077 403.059 127.856 405.744 126.392C408.479 124.976 410.92 123.364 413.068 121.558C415.266 119.751 417.023 117.798 418.342 115.698C419.66 113.599 420.319 111.353 420.319 108.96C420.319 107.788 420.075 106.86 419.587 106.177C419.147 105.542 418.61 105.054 417.976 104.712C417.39 104.37 416.755 104.15 416.071 104.053C415.437 104.004 414.899 103.979 414.46 103.979C410.993 103.979 407.453 104.175 403.84 104.565C400.227 105.005 396.931 105.444 393.952 105.884C391.022 106.372 388.605 106.812 386.701 107.202C384.797 107.642 383.796 107.861 383.698 107.861C382.624 107.861 381.623 107.642 380.695 107.202C379.816 106.763 379.06 106.201 378.425 105.518C377.79 104.834 377.277 104.028 376.887 103.101C376.545 102.222 376.374 101.318 376.374 100.391C376.374 99.6582 376.813 98.6084 377.692 97.2412C378.571 95.8252 379.719 94.3115 381.135 92.7002C382.551 91.0889 384.162 89.502 385.969 87.9395C387.824 86.377 389.68 85.083 391.535 84.0576C389.875 83.1787 388.386 82.1045 387.067 80.835C385.749 79.5654 384.626 78.1982 383.698 76.7334C382.819 75.2686 382.136 73.7305 381.647 72.1191C381.159 70.459 380.915 68.7744 380.915 67.0654C380.915 63.7451 381.379 60.8154 382.307 58.2764C383.234 55.6885 384.455 53.4424 385.969 51.5381C387.482 49.6338 389.167 48.0469 391.022 46.7773C392.927 45.5078 394.807 44.4824 396.662 43.7012C398.518 42.9199 400.275 42.3828 401.936 42.0898C403.596 41.748 404.987 41.5771 406.11 41.5771C406.647 41.5771 407.087 41.6016 407.429 41.6504C407.819 41.6992 408.161 41.7725 408.454 41.8701C409.675 39.917 411.066 37.8418 412.629 35.6445C414.24 33.3984 415.876 31.2012 417.536 29.0527C419.245 26.8555 420.93 24.7803 422.59 22.8271C424.299 20.8252 425.837 19.0674 427.204 17.5537C428.62 15.9912 429.816 14.7705 430.793 13.8916C431.77 12.9639 432.429 12.5 432.771 12.5C433.21 12.5 433.747 12.793 434.382 13.3789C435.017 13.916 435.627 14.5508 436.213 15.2832C436.799 15.9668 437.287 16.6504 437.678 17.334C438.117 17.9688 438.337 18.4082 438.337 18.6523C438.337 18.8965 438.239 19.1162 438.044 19.3115C437.849 19.5068 437.751 19.6777 437.751 19.8242C437.751 20.0684 437.873 20.2881 438.117 20.4834C438.41 20.6299 438.825 20.8252 439.362 21.0693C439.46 21.167 439.533 21.2158 439.582 21.2158C439.631 21.2158 439.655 21.2646 439.655 21.3623C439.655 21.5576 439.338 21.8994 438.703 22.3877C438.068 22.8271 437.043 23.6328 435.627 24.8047C434.211 25.9277 432.38 27.5146 430.134 29.5654C427.888 31.6162 425.129 34.3262 421.857 37.6953C421.076 38.4277 420.271 39.3311 419.44 40.4053C418.61 41.4795 417.707 42.627 416.73 43.8477C418 44.5312 419.318 45.4346 420.686 46.5576C422.053 47.6807 423.273 48.999 424.348 50.5127C425.471 51.9775 426.374 53.6621 427.058 55.5664C427.79 57.4707 428.156 59.5215 428.156 61.7188C428.156 66.4062 427.375 70.3369 425.812 73.5107C424.25 76.6846 422.224 79.248 419.733 81.2012C417.243 83.1055 414.46 84.4727 411.384 85.3027C408.308 86.1328 405.28 86.5479 402.302 86.5479C401.569 86.5479 400.861 86.5234 400.178 86.4746C399.543 86.4258 398.908 86.3525 398.273 86.2549C397.15 86.9873 395.881 87.8906 394.465 88.9648C393.049 90.0391 391.657 91.2109 390.29 92.4805C388.923 93.75 387.653 95.0439 386.481 96.3623C385.358 97.6807 384.504 98.9258 383.918 100.098C385.871 100.049 387.751 99.9023 389.558 99.6582C391.364 99.3652 393.171 99.0479 394.978 98.7061C396.833 98.3643 398.737 98.0713 400.69 97.8271C402.644 97.5342 404.743 97.3877 406.989 97.3877ZM404.719 50.5859C404.719 49.6094 405.28 47.9492 406.403 45.6055C404.108 46.3379 402.058 47.4365 400.251 48.9014C398.444 50.3662 396.906 52.0264 395.637 53.8818C394.367 55.7373 393.391 57.7393 392.707 59.8877C392.023 61.9873 391.682 64.0869 391.682 66.1865C391.682 67.7002 391.853 69.165 392.194 70.5811C392.585 71.9482 393.171 73.1934 393.952 74.3164C394.733 75.3906 395.734 76.2695 396.955 76.9531C398.225 77.5879 399.763 77.9053 401.569 77.9053C403.522 77.9053 405.256 77.5635 406.77 76.8799C408.332 76.1475 409.699 75.2197 410.871 74.0967C412.043 72.9248 413.02 71.6309 413.801 70.2148C414.631 68.7988 415.29 67.4072 415.778 66.04C416.315 64.624 416.706 63.3057 416.95 62.085C417.194 60.8643 417.316 59.8877 417.316 59.1553C417.316 56.2256 416.828 53.9551 415.852 52.3438C414.924 50.6836 413.825 49.4385 412.556 48.6084C411.872 49.4385 411.164 50.2441 410.432 51.0254C409.699 51.7578 408.942 52.5146 408.161 53.2959C408.063 53.3936 407.917 53.4424 407.722 53.4424C407.575 53.4424 407.453 53.3691 407.355 53.2227C407.258 53.0762 407.087 53.0029 406.843 53.0029C406.696 53.0029 406.55 53.0762 406.403 53.2227C406.257 53.3691 406.062 53.4424 405.817 53.4424C405.476 53.4424 405.207 53.2471 405.012 52.8564C404.816 52.4658 404.719 51.709 404.719 50.5859Z" stroke="#363636" stroke-width="10" mask="url(#path-4-outside-1_2026_4037)"/>
<path d="M490.485 69.7754C490.485 74.9023 489.729 79.5166 488.215 83.6182C486.75 87.7197 484.724 91.2109 482.136 94.0918C479.597 96.9727 476.643 99.1943 473.273 100.757C469.904 102.319 466.34 103.101 462.58 103.101C461.018 103.101 459.309 102.905 457.453 102.515C455.598 102.173 453.742 101.587 451.887 100.757C450.031 99.9268 448.225 98.8281 446.467 97.4609C444.709 96.0938 443.146 94.4092 441.779 92.4072C440.412 90.4053 439.313 88.0615 438.483 85.376C437.702 82.6904 437.336 79.5898 437.385 76.0742C437.385 72.0703 437.873 68.4326 438.85 65.1611C439.826 61.8408 441.071 58.8867 442.585 56.2988C444.147 53.6621 445.905 51.3916 447.858 49.4873C449.812 47.583 451.765 45.9961 453.718 44.7266C455.671 43.4082 457.551 42.4316 459.357 41.7969C461.164 41.1621 462.727 40.7959 464.045 40.6982C464.729 40.6494 465.021 40.7227 464.924 40.918C464.875 41.1133 464.704 41.333 464.411 41.5771C464.118 41.8213 463.85 42.0654 463.605 42.3096C463.41 42.5537 463.508 42.7002 463.898 42.749C464.24 42.8467 464.509 42.9443 464.704 43.042C464.948 43.1396 465.192 43.2617 465.437 43.4082L466.022 42.749C466.364 42.5049 466.682 42.3828 466.975 42.3828C467.316 42.3828 467.609 42.4316 467.854 42.5293C468.098 42.5781 468.293 42.6025 468.439 42.6025C468.586 42.6025 468.684 42.4561 468.732 42.1631C468.83 41.626 469.001 41.333 469.245 41.2842C469.538 41.1865 470.173 41.1377 471.149 41.1377C471.735 41.1377 472.614 41.3086 473.786 41.6504C475.007 41.9922 476.325 42.5781 477.741 43.4082C479.206 44.2383 480.671 45.3613 482.136 46.7773C483.649 48.1445 485.017 49.9023 486.237 52.0508C487.507 54.1504 488.532 56.665 489.313 59.5947C490.095 62.5244 490.485 65.918 490.485 69.7754ZM464.045 48.3154C462.336 49.3408 460.651 50.7324 458.991 52.4902C457.331 54.248 455.817 56.2744 454.45 58.5693C453.132 60.8643 452.058 63.4277 451.228 66.2598C450.397 69.0918 449.982 72.0703 449.982 75.1953C449.982 78.5645 450.275 81.6162 450.861 84.3506C451.496 87.085 452.399 89.4287 453.571 91.3818C454.743 93.2861 456.159 94.7754 457.819 95.8496C459.528 96.875 461.457 97.3877 463.605 97.3877C465.51 97.3877 467.39 96.8506 469.245 95.7764C471.149 94.7021 472.834 93.0908 474.299 90.9424C475.764 88.7939 476.936 86.1328 477.814 82.959C478.742 79.7852 479.206 76.0986 479.206 71.8994C479.206 67.6514 478.645 64.0869 477.521 61.2061C476.398 58.3252 475.129 56.0059 473.713 54.248C472.346 52.4414 471.027 51.1719 469.758 50.4395C468.488 49.6582 467.707 49.2676 467.414 49.2676C466.73 49.2676 466.193 49.2676 465.803 49.2676C465.461 49.2676 464.875 48.9502 464.045 48.3154Z" stroke="#363636" stroke-width="10" mask="url(#path-4-outside-1_2026_4037)"/>
<defs>
<linearGradient id="paint0_linear_2026_4037" x1="5.19922" y1="134.5" x2="495.199" y2="134.5" gradientUnits="userSpaceOnUse">
<stop stop-color="#01B7EF"/>
<stop offset="0.495192" stop-color="#CB2518"/>
<stop offset="1" stop-color="#31EF01"/>
</linearGradient>
</defs>
</svg>
